<svg id="Capa_1" enable-background="new 0 0 512 512" height="512" viewBox="0 0 512 512" width="512" xmlns="http://www.w3.org/2000/svg" xmlns:xlink="http://www.w3.org/1999/xlink"><linearGradient id="SVGID_1_" gradientUnits="userSpaceOnUse" x1="46.33" x2="400.606" y1="414.776" y2="60.5"><stop offset=".0485" stop-color="#d2deff"/><stop offset=".9993" stop-color="#dcfdee"/></linearGradient><linearGradient id="SVGID_2_" gradientUnits="userSpaceOnUse" x1="259.835" x2="259.835" y1="482.372" y2="27.852"><stop offset="0" stop-color="#ff7eb8" stop-opacity=".6"/><stop offset=".0094" stop-color="#ff83bb" stop-opacity=".594"/><stop offset=".0786" stop-color="#ffa4cd" stop-opacity=".553"/><stop offset=".156" stop-color="#ffc1dd" stop-opacity=".506"/><stop offset=".2421" stop-color="#ffd8e9" stop-opacity=".454"/><stop offset=".3408" stop-color="#ffe9f3" stop-opacity=".395"/><stop offset=".46" stop-color="#fff6fa" stop-opacity=".323"/><stop offset=".6202" stop-color="#fffdfe" stop-opacity=".227"/><stop offset=".9972" stop-color="#fff" stop-opacity="0"/></linearGradient><g><g><path d="m502.371 208.61c-50.279-176.029-76.944-30.014-130.326-107.727-12.488-18.179-22.452-48.794-47.798-47.041-54.11 3.743-69.086 108.208-149.853 24.308-87.258-90.642-187.991-26.728-172.877 53.651 5.205 27.674 20.258 54.525 32.831 79.387 14.525 28.722 36.814 54.743 39.54 87.981 2.671 32.558-8.122 65.115-4.026 97.563 3.53 27.964 12.28 61.465 37.046 76.421 54.049 32.639 127.423-27.562 142.666-83.893 10.644-39.335 3.316-95.253 44.715-117.086 44.29-23.357 87.831 21.871 100.603 63.434 9.465 30.801 29.581 53.722 64.348 37.771 61.13-28.048 59.311-108.122 43.131-164.769z" fill="url(#SVGID_1_)"/></g><g><g><g><g><path d="m347.085 482.372h-174.499c-22.091 0-40-17.909-40-40v-374.52c0-22.091 17.909-40 40-40h174.498c22.091 0 40 17.909 40 40v374.52c.001 22.091-17.908 40-39.999 40z" fill="#9fb0fe"/><path d="m387.08 406.122v36.25c0 7.54-2.09 14.59-5.71 20.61h-69.28c-8.28 0-15-6.71-15-15v-26.86c0-8.29 6.72-15 15-15z" fill="#8399fe"/><path d="m132.586 118.197h254.499v310.59h-254.499z" fill="#fff"/><g fill="#d2deff"><path d="m387.08 325.662v56.87h-74.99c-8.28 0-15-6.72-15-15v-26.87c0-8.28 6.72-15 15-15z"/><path d="m387.08 245.212v56.86h-74.99c-8.28 0-15-6.72-15-15v-26.86c0-8.29 6.72-15 15-15z"/><path d="m387.08 164.752v56.86h-74.99c-8.28 0-15-6.71-15-15v-26.86c0-8.29 6.72-15 15-15z"/><path d="m199.69 164.752c0 37.06-30.04 67.1-67.1 67.1v-134.2c37.06 0 67.1 30.04 67.1 67.1z"/></g><path d="m318.936 45.768 7.93-17.916h-134.061l7.93 17.916c3.203 7.238 10.374 11.905 18.289 11.905h81.624c7.914 0 15.084-4.667 18.288-11.905z" fill="#2d58e0"/><g><path d="" style="fill:none;stroke:#2626bc;stroke-width:10;stroke-linecap:round;stroke-linejoin:round;stroke-miterlimit:10"/></g></g><g><path d="m323.077 81.403 10.532 12.996c2.001 2.469 5.768 2.469 7.769 0l10.532-12.996c2.649-3.269.323-8.148-3.884-8.148h-21.064c-4.207 0-6.534 4.88-3.885 8.148z" fill="#ff5ba8"/><path d="m239.232 96.251h-67.597c-2.761 0-5-2.239-5-5v-10c0-2.761 2.239-5 5-5h67.597c2.761 0 5 2.239 5 5v10c0 2.761-2.239 5-5 5z" fill="#6583fe"/></g><circle cx="260.818" cy="91.251" fill="#fff" r="5"/><circle cx="277.079" cy="91.251" fill="#fff" r="5"/><g><g><g><path d="m389.613 197.616h-77.52c-8.284 0-15-6.716-15-15v-26.865c0-8.284 6.716-15 15-15h77.52c8.284 0 15 6.716 15 15v26.865c0 8.284-6.716 15-15 15z" fill="#01eca5"/></g><g fill="#fff"><path d="m382.085 164.183h-2.092v-2.092c0-2.761-2.239-5-5-5s-5 2.239-5 5v2.092h-2.092c-2.761 0-5 2.239-5 5s2.239 5 5 5h2.092v2.092c0 2.761 2.239 5 5 5s5-2.239 5-5v-2.092h2.092c2.761 0 5-2.239 5-5s-2.239-5-5-5z"/><path d="m345.853 179.089h-22.982c-2.761 0-5-2.239-5-5v-9.812c0-2.761 2.239-5 5-5h22.982c2.761 0 5 2.239 5 5v9.812c0 2.762-2.239 5-5 5z"/></g></g><g><g><path d="m389.613 278.072h-77.52c-8.284 0-15-6.716-15-15v-26.865c0-8.284 6.716-15 15-15h77.52c8.284 0 15 6.716 15 15v26.865c0 8.284-6.716 15-15 15z" fill="#ff5ba8"/></g><path d="m345.853 259.545h-22.982c-2.761 0-5-2.239-5-5v-9.812c0-2.761 2.239-5 5-5h22.982c2.761 0 5 2.239 5 5v9.812c0 2.762-2.239 5-5 5z" fill="#fff"/></g><g><g><path d="m389.613 358.528h-77.52c-8.284 0-15-6.716-15-15v-26.865c0-8.284 6.716-15 15-15h77.52c8.284 0 15 6.716 15 15v26.865c0 8.284-6.716 15-15 15z" fill="#ff5ba8"/></g><path d="m345.853 340.002h-22.982c-2.761 0-5-2.239-5-5v-9.812c0-2.761 2.239-5 5-5h22.982c2.761 0 5 2.239 5 5v9.812c0 2.761-2.239 5-5 5z" fill="#fff"/></g><g><g><g><g><path d="m214.893 395.17h-44.162c-2.761 0-5-2.239-5-5s2.239-5 5-5h44.162c2.761 0 5 2.239 5 5s-2.239 5-5 5z" fill="#ff5ba8"/></g><g><path d="m251.818 415.552h-81.087c-2.761 0-5-2.239-5-5s2.239-5 5-5h81.087c2.761 0 5 2.239 5 5s-2.239 5-5 5z" fill="#4369fd"/></g></g><g><g><path d="m200.893 314.714h-30.162c-2.761 0-5-2.239-5-5s2.239-5 5-5h30.162c2.761 0 5 2.239 5 5s-2.239 5-5 5z" fill="#ff5ba8"/></g><g><path d="m239.818 335.096h-69.087c-2.761 0-5-2.239-5-5s2.239-5 5-5h69.087c2.761 0 5 2.239 5 5s-2.239 5-5 5z" fill="#4369fd"/></g><g><path d="m265.818 355.477h-95.087c-2.761 0-5-2.239-5-5s2.239-5 5-5h95.087c2.761 0 5 2.239 5 5s-2.239 5-5 5z" fill="#4369fd"/></g></g><g><g><path d="m220.893 234.258h-50.162c-2.761 0-5-2.239-5-5s2.239-5 5-5h50.162c2.761 0 5 2.239 5 5s-2.239 5-5 5z" fill="#ff5ba8"/></g><g><path d="m253.818 254.639h-83.087c-2.761 0-5-2.239-5-5s2.239-5 5-5h83.087c2.761 0 5 2.239 5 5s-2.239 5-5 5z" fill="#4369fd"/></g><g><path d="m225.818 275.021h-55.087c-2.761 0-5-2.239-5-5s2.239-5 5-5h55.087c2.761 0 5 2.239 5 5s-2.239 5-5 5z" fill="#4369fd"/></g></g><g fill="#ff5ba8"><circle cx="230.831" cy="382.12" r="5"/><circle cx="216.831" cy="301.663" r="5"/><circle cx="236.831" cy="221.207" r="5"/></g></g><path d="m347.085 482.372h-174.499c-22.091 0-40-17.909-40-40v-374.52c0-22.091 17.909-40 40-40h174.498c22.091 0 40 17.909 40 40v374.52c.001 22.091-17.908 40-39.999 40z" fill="url(#SVGID_2_)"/><g><path d="m389.613 438.984h-77.52c-8.284 0-15-6.716-15-15v-26.864c0-8.284 6.716-15 15-15h77.52c8.284 0 15 6.716 15 15v26.865c0 8.284-6.716 14.999-15 14.999z" fill="#ff5ba8"/></g><g fill="#fff"><path d="m382.085 415.552c2.761 0 5-2.239 5-5s-2.239-5-5-5h-14.184c-2.761 0-5 2.239-5 5s2.239 5 5 5z"/><path d="m382.085 335.096c2.761 0 5-2.239 5-5s-2.239-5-5-5h-14.184c-2.761 0-5 2.239-5 5s2.239 5 5 5z"/><path d="m382.085 254.64c2.761 0 5-2.239 5-5s-2.239-5-5-5h-14.184c-2.761 0-5 2.239-5 5s2.239 5 5 5z"/><path d="m345.853 420.458h-22.982c-2.761 0-5-2.239-5-5v-9.812c0-2.761 2.239-5 5-5h22.982c2.761 0 5 2.239 5 5v9.812c0 2.761-2.239 5-5 5z"/></g></g></g><g><g><path d="m214.893 153.801h-44.162c-2.761 0-5-2.239-5-5s2.239-5 5-5h44.162c2.761 0 5 2.239 5 5s-2.239 5-5 5z" fill="#01eca5"/></g><g><path d="m229.818 174.183h-59.087c-2.761 0-5-2.239-5-5s2.239-5 5-5h59.087c2.761 0 5 2.239 5 5s-2.239 5-5 5z" fill="#8399fe"/></g><g><path d="m265.818 194.565h-95.087c-2.761 0-5-2.239-5-5s2.239-5 5-5h95.087c2.761 0 5 2.239 5 5s-2.239 5-5 5z" fill="#8399fe"/></g></g><circle cx="230.831" cy="140.751" fill="#01eca5" r="5"/></g><g><g><circle cx="132.586" cy="140.751" fill="#ff5ba8" r="67.104"/></g><path d="m96.285 148.778 31.726 32.266c2.514 2.557 6.635 2.557 9.149 0l31.726-32.266c3.989-4.057 1.115-10.914-4.575-10.914h-15.423v-32.909c0-3.543-2.872-6.416-6.416-6.416h-19.775c-3.543 0-6.416 2.872-6.416 6.416v32.909h-15.421c-5.69 0-8.564 6.857-4.575 10.914z" fill="#fff"/></g></g><g><path d="m421.213 484.148c-1.28 0-2.559-.488-3.536-1.464l-4.965-4.965-4.964 4.965c-1.953 1.952-5.118 1.952-7.071 0-1.953-1.953-1.953-5.119 0-7.071l8.5-8.5c1.953-1.952 5.118-1.952 7.071 0l8.5 8.5c1.953 1.953 1.953 5.118 0 7.071-.976.976-2.255 1.464-3.535 1.464z" fill="#6583fe"/></g><g><path d="m111.431 315.913c-1.28 0-2.559-.488-3.536-1.464l-4.964-4.964-4.964 4.964c-1.953 1.952-5.118 1.952-7.071 0-1.953-1.953-1.953-5.119 0-7.071l8.5-8.5c1.953-1.952 5.118-1.952 7.071 0l8.5 8.5c1.953 1.953 1.953 5.119 0 7.071-.977.976-2.256 1.464-3.536 1.464z" fill="#6583fe"/></g><g><path d="m449.578 158.051c-1.28 0-2.559-.488-3.536-1.464l-4.964-4.964-4.964 4.964c-1.953 1.952-5.118 1.952-7.071 0-1.953-1.953-1.953-5.119 0-7.071l8.5-8.5c1.953-1.952 5.118-1.952 7.071 0l8.5 8.5c1.953 1.953 1.953 5.119 0 7.071-.977.976-2.256 1.464-3.536 1.464z" fill="#00d890"/></g><g><g><g><path d="m416.172 70.832c-.851 0-1.712-.217-2.501-.674l-.099-.057c-2.39-1.384-3.205-4.443-1.821-6.833 1.385-2.389 4.443-3.206 6.833-1.821l.099.057c2.39 1.384 3.205 4.443 1.821 6.833-.928 1.6-2.607 2.495-4.332 2.495z" fill="#ff7eb8"/></g><g><path d="m441.073 85.209c-.851 0-1.712-.217-2.501-.674l-.099-.057c-2.39-1.384-3.205-4.443-1.821-6.833s4.443-3.205 6.833-1.821l.099.057c2.39 1.384 3.205 4.443 1.821 6.833-.927 1.6-2.606 2.495-4.332 2.495z" fill="#ff7eb8"/></g></g><g><g><path d="m416.172 70.832c-.851 0-1.712-.217-2.501-.674l-.099-.057c-2.39-1.384-3.205-4.443-1.821-6.833 1.385-2.389 4.443-3.206 6.833-1.821l.099.057c2.39 1.384 3.205 4.443 1.821 6.833-.928 1.6-2.607 2.495-4.332 2.495z" fill="#ff7eb8"/></g><g><path d="m441.073 85.209c-.851 0-1.712-.217-2.501-.674l-.099-.057c-2.39-1.384-3.205-4.443-1.821-6.833s4.443-3.205 6.833-1.821l.099.057c2.39 1.384 3.205 4.443 1.821 6.833-.927 1.6-2.606 2.495-4.332 2.495z" fill="#ff7eb8"/></g></g><g><g><path d="m440.984 70.832c-1.726 0-3.404-.895-4.332-2.495-1.384-2.389-.569-5.448 1.821-6.833l.099-.057c2.39-1.384 5.449-.568 6.833 1.821s.569 5.448-1.821 6.833l-.099.057c-.788.456-1.651.674-2.501.674z" fill="#ff7eb8"/></g><g><path d="m416.083 85.209c-1.726 0-3.404-.895-4.332-2.495-1.384-2.389-.569-5.448 1.821-6.833l.099-.057c2.39-1.384 5.449-.568 6.833 1.821s.569 5.448-1.821 6.833l-.099.057c-.789.456-1.651.674-2.501.674z" fill="#ff7eb8"/></g></g><g><g><path d="m440.984 70.832c-1.726 0-3.404-.895-4.332-2.495-1.384-2.389-.569-5.448 1.821-6.833l.099-.057c2.39-1.384 5.449-.568 6.833 1.821s.569 5.448-1.821 6.833l-.099.057c-.788.456-1.651.674-2.501.674z" fill="#ff7eb8"/></g><g><path d="m416.083 85.209c-1.726 0-3.404-.895-4.332-2.495-1.384-2.389-.569-5.448 1.821-6.833l.099-.057c2.39-1.384 5.449-.568 6.833 1.821s.569 5.448-1.821 6.833l-.099.057c-.789.456-1.651.674-2.501.674z" fill="#ff7eb8"/></g></g><g><g><path d="m428.578 63.671c-2.761 0-5-2.239-5-5v-.114c0-2.761 2.239-5 5-5s5 2.239 5 5v.114c0 2.761-2.239 5-5 5z" fill="#ff7eb8"/></g><g><path d="m428.578 92.424c-2.761 0-5-2.239-5-5v-.114c0-2.761 2.239-5 5-5s5 2.239 5 5v.114c0 2.762-2.239 5-5 5z" fill="#ff7eb8"/></g></g></g><g><g><g><path d="m65.576 257.68c-.851 0-1.712-.217-2.501-.674l-.099-.057c-2.39-1.384-3.205-4.443-1.821-6.833s4.443-3.206 6.833-1.821l.099.057c2.39 1.384 3.205 4.443 1.821 6.833-.928 1.6-2.606 2.495-4.332 2.495z" fill="#00d890"/></g><g><path d="m90.478 272.056c-.844 0-1.7-.214-2.485-.665l-.099-.057c-2.395-1.375-3.221-4.431-1.846-6.826s4.432-3.221 6.826-1.846l.099.057c2.395 1.375 3.221 4.431 1.846 6.826-.925 1.61-2.609 2.511-4.341 2.511z" fill="#00d890"/></g></g><g><g><path d="m65.576 257.68c-.851 0-1.712-.217-2.501-.674l-.099-.057c-2.39-1.384-3.205-4.443-1.821-6.833s4.443-3.206 6.833-1.821l.099.057c2.39 1.384 3.205 4.443 1.821 6.833-.928 1.6-2.606 2.495-4.332 2.495z" fill="#00d890"/></g><g><path d="m90.478 272.056c-.844 0-1.7-.214-2.485-.665l-.099-.057c-2.395-1.375-3.221-4.431-1.846-6.826s4.432-3.221 6.826-1.846l.099.057c2.395 1.375 3.221 4.431 1.846 6.826-.925 1.61-2.609 2.511-4.341 2.511z" fill="#00d890"/></g></g><g><g><path d="m90.389 257.68c-1.726 0-3.404-.895-4.332-2.495-1.384-2.389-.569-5.448 1.821-6.833l.099-.057c2.39-1.384 5.449-.568 6.833 1.821s.569 5.448-1.821 6.833l-.099.057c-.789.457-1.651.674-2.501.674z" fill="#00d890"/></g><g><path d="m65.487 272.056c-1.732 0-3.417-.901-4.341-2.511-1.375-2.395-.549-5.451 1.846-6.826l.099-.057c2.395-1.375 5.45-.549 6.826 1.846 1.375 2.395.549 5.451-1.846 6.826l-.099.057c-.785.451-1.64.665-2.485.665z" fill="#00d890"/></g></g><g><g><path d="m90.389 257.68c-1.726 0-3.404-.895-4.332-2.495-1.384-2.389-.569-5.448 1.821-6.833l.099-.057c2.39-1.384 5.449-.568 6.833 1.821s.569 5.448-1.821 6.833l-.099.057c-.789.457-1.651.674-2.501.674z" fill="#00d890"/></g><g><path d="m65.487 272.056c-1.732 0-3.417-.901-4.341-2.511-1.375-2.395-.549-5.451 1.846-6.826l.099-.057c2.395-1.375 5.45-.549 6.826 1.846 1.375 2.395.549 5.451-1.846 6.826l-.099.057c-.785.451-1.64.665-2.485.665z" fill="#00d890"/></g></g><g><g><path d="m77.982 250.519c-2.761 0-5-2.239-5-5v-.114c0-2.761 2.239-5 5-5s5 2.239 5 5v.114c0 2.761-2.238 5-5 5z" fill="#00d890"/></g><g><path d="m77.982 279.273c-2.761 0-5-2.239-5-5v-.114c0-2.761 2.239-5 5-5s5 2.239 5 5v.114c0 2.761-2.238 5-5 5z" fill="#00d890"/></g></g></g></g></g></svg>