<svg id="Capa_1" enable-background="new 0 0 512 512" height="512" viewBox="0 0 512 512" width="512" xmlns="http://www.w3.org/2000/svg" xmlns:xlink="http://www.w3.org/1999/xlink"><linearGradient id="SVGID_1_" gradientUnits="userSpaceOnUse" x1="105.046" x2="421.27" y1="394.179" y2="77.954"><stop offset=".0485" stop-color="#ffdbed"/><stop offset=".9993" stop-color="#d2deff"/></linearGradient><linearGradient id="SVGID_2_" gradientUnits="userSpaceOnUse" x1="256" x2="256" y1="448.786" y2="63.214"><stop offset="0" stop-color="#ff7eb8" stop-opacity=".6"/><stop offset=".0094" stop-color="#ff83bb" stop-opacity=".594"/><stop offset=".0786" stop-color="#ffa4cd" stop-opacity=".553"/><stop offset=".156" stop-color="#ffc1dd" stop-opacity=".506"/><stop offset=".2421" stop-color="#ffd8e9" stop-opacity=".454"/><stop offset=".3408" stop-color="#ffe9f3" stop-opacity=".395"/><stop offset=".46" stop-color="#fff6fa" stop-opacity=".323"/><stop offset=".6202" stop-color="#fffdfe" stop-opacity=".227"/><stop offset=".9972" stop-color="#fff" stop-opacity="0"/></linearGradient><g><g><g><path d="m445.51 349.909c-22.777-16.781-56.173-16.879-80.072-1.739-25.898 16.406-55.795 39.598-83.17 10.549-20.906-22.185-16.539-57.158 4.774-77.285 15.682-14.81 34.225-26.159 52.842-37.054 57.593-33.703 109.138-104.205 72.001-172.429-29.435-54.074-142.31-52.507-178.527 20.217-12.475 25.05-42.134 21.235-53.817.548-11.177-19.792-8.89-44.848-21.321-64.071-45.827-70.86-142.585 3.468-119.977 74.454 10.008 41.906 49.294 46.402 44.085 63.641-6.519 21.575-17.589 38.566.401 58.153 14.113 15.366 39.06 16.051 54.232 30.376 46.01 43.443-12.735 113.144 22.354 184.459 40.175 81.653 154.405 81.087 230.378 61.047 69.746-18.397 124.603-100.187 55.817-150.866z" fill="url(#SVGID_1_)"/></g></g><g><g><g><path d="m426.197 448.786h-225.318s-.16-20.5.01-53.24c.14-26.62.5-61.34 1.34-99.7.35-16.18.8-33.02 1.36-50.17.97-30.3 2.28-61.59 4.02-92.03h103.83c10.83.8 36.98 7.57 62.71 32.66 36.559 35.639 72.284 108.242 62.021 253.214-.37 5.225-4.735 9.266-9.973 9.266z" fill="#6583fe"/><g><path d="m374.149 186.306c-1.61 45.41-43.65 81.78-95.28 81.78-6.57 0-12.63-.59-18.21-1.72 0 0-27.32 6.34-47.11-6.34-4.73-3.03-7.89-8.21-9.96-14.35.97-30.3 2.28-61.59 4.02-92.03h103.83c10.83.8 36.98 7.57 62.71 32.66z" fill="#4369fd"/></g><g><path d="m436.529 434.196-81.87-.69c-13.96-.12-20.88-17.01-11-26.88l30.91-30.92-169.53-169.53c.72-17.56 1.57-35.18 2.57-52.53h41.39l173.82 173.81 9.98-9.98c4.92 32.29 6.66 70.81 3.73 116.72z" fill="#4369fd"/></g><path d="m281.559 362.106c0 44.13-36.1 52.09-60.01 42.71-7.68-3.01-14.54-6.12-20.66-9.27.14-26.62.5-61.34 1.34-99.7 13.29 11.79 29.34 20.05 46.57 24.69 14.04 3.78 32.76 13.98 32.76 41.57z" fill="#4369fd"/><path d="m266.467 448.782s7.406-57.069 3.318-131.638c-4.262-77.75 104.785-82.4 118.226 5.073 9.152 59.556 3.463 126.565 3.463 126.565z" fill="#ffa8cf"/><path d="m392.399 433.826-37.74-.32c-13.96-.12-20.88-17.01-11-26.88l30.91-30.92-95.76-95.76c25.85-38.82 98.4-28.02 109.2 42.27 6.51 42.37 5.51 88.51 4.39 111.61z" fill="#ff7eb8"/><g><path d="m270.379 395.936c.69-17.96.96-39.61.11-63.49 6.41 6.47 11.07 15.9 11.07 29.66 0 15.43-4.41 26.44-11.18 33.83z" fill="#ff7eb8"/></g><g><path d="m77.555 244.451 87.844 87.845v-203.257c0-12.451 6.448-24.195 17.29-30.315 5.305-2.995 11.093-4.436 16.82-4.436 8.878 0 17.605 3.467 24.133 9.994l199.179 199.178 30.963-30.963c9.875-9.875 26.763-2.963 26.881 11.002l.937 111.062c.074 8.8-7.079 15.953-15.879 15.879l-111.062-.937c-13.964-.118-20.876-17.006-11.002-26.881l30.912-30.912-140.936-140.936v203.246c0 12.725-6.744 24.682-17.959 30.694-13.404 7.184-29.722 4.636-40.285-5.926l-146.087-146.087c-13.324-13.324-13.324-34.927 0-48.251 13.325-13.324 34.927-13.323 48.251.001z" fill="#ff5ba8"/><g fill="#fe2c8f"><path d="m354.449 235.086c-15.23 17.54-38.05 29.62-64.11 32.39l-56.7-56.7v56.4c-6.71-1-13.78-3.11-20.09-7.15-19.8-12.68-12.14-63.09-12.14-63.09 2.38-2 2.72-3.7 5.2-5.15-.14-2.7-.22-5.43-.22-8.19 0-30.25 10.62-51.49 32.35-64.21z"/><path d="m481.249 353.226c-13.15 15.17-34.91 21.18-54.66 13.4-25.02-9.87-37.31-38.14-27.45-63.17 2.37-6 5.57-10.71 9.42-14.26l14.26 14.26 30.96-30.96c9.88-9.87 26.77-2.96 26.89 11z"/><path d="m233.639 315.376v92.52c-4.21-.54-8.3-1.59-12.09-3.08-66.15-25.95-71.14-58.53-73.4-73.31-.99-6.46-1.6-12.58-1.9-18.36l19.15 19.15v-94.64c6.15 22.92 19.21 40.83 32.27 53.9 10.31 10.3 22.58 18.26 35.97 23.82z"/></g></g><g><g><g><path d="m237.336 121.606c-14.008 0-25.364-11.356-25.364-25.364s11.356-25.364 25.364-25.364 25.364 11.357 25.364 25.365z" fill="#6583fe"/></g></g><path d="m284.005 82.132c-52.356 5.57-77.613 30.802-77.613 77.463 0 2.764.075 5.495.217 8.191-2.477 1.454-2.816 3.155-5.197 5.149 0 0-7.658 50.41 12.137 63.092s47.11 6.342 47.11 6.342c5.576 1.123 11.637 1.713 18.211 1.713 52.651 0 95.333-37.826 95.333-84.487 0-46.662-42.514-82.536-90.198-77.463z" fill="#8399fe"/><g><ellipse cx="280.5" cy="153.523" fill="#2d58e0" rx="6.579" ry="9.344"/></g><g><ellipse cx="220.623" cy="153.523" fill="#2d58e0" rx="6.579" ry="9.344"/></g><g><g><path d="m267.764 188.98c-1.663 0-3.29-.829-4.239-2.342-6.421-10.225-22.853-17.376-45.096-10.296-2.629.836-5.443-.617-6.281-3.249-.837-2.631.617-5.443 3.249-6.281 27.341-8.702 48.126 1.018 56.597 14.508 1.469 2.339.763 5.425-1.576 6.893-.826.52-1.746.767-2.654.767z" fill="#6583fe"/></g></g><g><g><path d="m273.802 228.984c-2.639 0-5.238-.384-7.73-1.171-2.633-.833-4.093-3.642-3.261-6.274.832-2.633 3.641-4.092 6.274-3.261 6.554 2.071 14.548-.428 20.866-6.521 1.987-1.917 5.152-1.858 7.069.128 1.917 1.988 1.86 5.153-.128 7.07-6.737 6.497-15.088 10.029-23.09 10.029z" fill="#6583fe"/></g></g><g><path d="m233.785 168.458c0 8.519-8.838 21.723-19.74 21.723s-19.74-13.204-19.74-21.723 8.838-9.126 19.74-9.126c10.902.001 19.74.608 19.74 9.126z" fill="#2d58e0"/></g><g><g><g><path d="m295.756 99.286c0-19.922 16.15-36.072 36.072-36.072s36.072 16.15 36.072 36.072-16.15 36.072-36.072 36.072z" fill="#8399fe"/></g><g><path d="m315.147 90.472c3.474-6.561 10.706-10.827 18.829-9.929 8.649.955 15.641 7.947 16.596 16.596.922 8.345-3.606 15.75-10.473 19.105-4.153 2.029-9.161 1.015-12.429-2.253l-10.533-10.533c-3.429-3.429-4.259-8.701-1.99-12.986z" fill="#ffa8cf"/></g></g></g></g><path d="m165.399 213.66s-26.976 30.421-17.252 93.846c2.266 14.782 7.257 47.355 73.405 73.307 23.906 9.379 60.013 1.422 60.013-42.711 0-27.583-18.723-37.791-32.764-41.568-19.255-5.179-37.035-14.884-51.134-28.983-13.061-13.06-26.116-30.972-32.268-53.891z" fill="#8399fe"/><g><path d="m489.754 315.169c-9.861 25.022-38.14 37.313-63.162 27.452s-37.313-38.14-27.452-63.162 34.291-27.546 59.313-17.685c25.023 9.861 41.163 28.373 31.301 53.395z" fill="#8399fe"/></g><path d="m458.453 261.774c-14.411-5.679-28.619-7.237-39.967-2.769-11.959-33.637-28.063-56.835-44.337-72.699-1.208-1.178-2.416-2.302-3.624-3.4 2.394-7.405 3.678-15.225 3.678-23.312 0-15.063-4.436-28.999-12.041-40.8 3.625-5.626 5.737-12.318 5.737-19.508 0-19.922-16.15-36.072-36.072-36.072-13.644 0-25.516 7.577-31.646 18.752-5.287-.453-10.697-.417-16.177.166-8.474.901-16.226 2.327-23.288 4.266-3.844-9.118-12.865-15.519-23.381-15.519-14.008 0-25.364 11.356-25.364 25.364 0 .138.008.275.01.413-3.972-1.558-8.203-2.368-12.473-2.368-5.727 0-11.515 1.442-16.82 4.436-10.843 6.12-17.29 17.865-17.29 30.315v84.621s-26.976 30.421-17.252 93.846c.398 2.595.881 5.741 1.764 9.301l-72.356-72.356c-13.324-13.324-34.926-13.324-48.25 0-13.324 13.324-13.324 34.927 0 48.251l146.087 146.088c6.86 6.859 16.148 10.334 25.488 9.962v.035h225.318c5.238 0 9.603-4.041 9.973-9.266.717-10.126 1.202-19.886 1.485-29.317l28.067.237c8.8.074 15.953-7.079 15.879-15.879l-.549-65.117c3.607-4.109 6.583-8.895 8.703-14.275 9.861-25.023-6.279-43.535-31.302-53.396z" fill="url(#SVGID_2_)"/></g><g><path d="m198.444 56.897c-1.28 0-2.559-.488-3.536-1.464l-4.964-4.964-4.964 4.964c-1.953 1.952-5.118 1.952-7.071 0-1.953-1.953-1.953-5.119 0-7.071l8.5-8.5c1.953-1.952 5.118-1.952 7.071 0l8.5 8.5c1.953 1.953 1.953 5.119 0 7.071-.977.976-2.256 1.464-3.536 1.464z" fill="#ff7eb8"/></g><g><path d="m116.42 443.446c-1.28 0-2.559-.488-3.536-1.464l-4.964-4.964-4.964 4.964c-1.953 1.952-5.118 1.952-7.071 0-1.953-1.953-1.953-5.119 0-7.071l8.5-8.5c1.953-1.952 5.118-1.952 7.071 0l8.5 8.5c1.953 1.953 1.953 5.119 0 7.071-.977.976-2.256 1.464-3.536 1.464z" fill="#6583fe"/></g><g><path d="m133.42 187.775c-1.28 0-2.559-.488-3.536-1.464l-4.964-4.964-4.964 4.964c-1.953 1.952-5.118 1.952-7.071 0-1.953-1.953-1.953-5.119 0-7.071l8.5-8.5c1.953-1.952 5.118-1.952 7.071 0l8.5 8.5c1.953 1.953 1.953 5.119 0 7.071-.977.976-2.256 1.464-3.536 1.464z" fill="#6583fe"/></g><g><g><g><path d="m425.254 202.457c-.851 0-1.712-.217-2.501-.674l-.099-.057c-2.39-1.384-3.205-4.443-1.82-6.833 1.384-2.39 4.442-3.206 6.832-1.821l.099.057c2.39 1.384 3.205 4.443 1.82 6.833-.927 1.6-2.606 2.495-4.331 2.495z" fill="#00d890"/></g><g><path d="m450.155 216.833c-.845 0-1.7-.214-2.485-.665l-.099-.057c-2.395-1.375-3.221-4.431-1.846-6.826 1.375-2.396 4.431-3.221 6.826-1.846l.099.057c2.395 1.375 3.221 4.431 1.846 6.826-.925 1.61-2.608 2.511-4.341 2.511z" fill="#00d890"/></g></g><g><g><path d="m425.254 202.457c-.851 0-1.712-.217-2.501-.674l-.099-.057c-2.39-1.384-3.205-4.443-1.82-6.833 1.384-2.39 4.442-3.206 6.832-1.821l.099.057c2.39 1.384 3.205 4.443 1.82 6.833-.927 1.6-2.606 2.495-4.331 2.495z" fill="#00d890"/></g><g><path d="m450.155 216.833c-.845 0-1.7-.214-2.485-.665l-.099-.057c-2.395-1.375-3.221-4.431-1.846-6.826 1.375-2.396 4.431-3.221 6.826-1.846l.099.057c2.395 1.375 3.221 4.431 1.846 6.826-.925 1.61-2.608 2.511-4.341 2.511z" fill="#00d890"/></g></g><g><g><path d="m450.066 202.457c-1.726 0-3.404-.895-4.331-2.495-1.385-2.389-.569-5.448 1.82-6.833l.099-.057c2.391-1.384 5.449-.568 6.832 1.821 1.385 2.389.569 5.448-1.82 6.833l-.099.057c-.789.456-1.65.674-2.501.674z" fill="#00d890"/></g><g><path d="m425.165 216.833c-1.732 0-3.416-.901-4.341-2.511-1.375-2.395-.549-5.451 1.846-6.826l.099-.057c2.396-1.375 5.451-.548 6.826 1.846s.549 5.451-1.846 6.826l-.099.057c-.785.451-1.641.665-2.485.665z" fill="#00d890"/></g></g><g><g><path d="m450.066 202.457c-1.726 0-3.404-.895-4.331-2.495-1.385-2.389-.569-5.448 1.82-6.833l.099-.057c2.391-1.384 5.449-.568 6.832 1.821 1.385 2.389.569 5.448-1.82 6.833l-.099.057c-.789.456-1.65.674-2.501.674z" fill="#00d890"/></g><g><path d="m425.165 216.833c-1.732 0-3.416-.901-4.341-2.511-1.375-2.395-.549-5.451 1.846-6.826l.099-.057c2.396-1.375 5.451-.548 6.826 1.846s.549 5.451-1.846 6.826l-.099.057c-.785.451-1.641.665-2.485.665z" fill="#00d890"/></g></g><g><g><path d="m437.66 195.295c-2.762 0-5-2.239-5-5v-.114c0-2.761 2.238-5 5-5s5 2.239 5 5v.114c0 2.762-2.238 5-5 5z" fill="#00d890"/></g><g><path d="m437.66 224.049c-2.762 0-5-2.239-5-5v-.114c0-2.761 2.238-5 5-5s5 2.239 5 5v.114c0 2.762-2.238 5-5 5z" fill="#00d890"/></g></g></g><g><g><g><path d="m48.024 406.154c-.851 0-1.712-.217-2.501-.674l-.099-.057c-2.39-1.384-3.205-4.443-1.821-6.833s4.443-3.205 6.833-1.821l.099.057c2.39 1.384 3.205 4.443 1.821 6.833-.928 1.6-2.606 2.495-4.332 2.495z" fill="#00d890"/></g><g><path d="m72.925 420.531c-.851 0-1.712-.217-2.501-.674l-.099-.057c-2.39-1.384-3.205-4.443-1.821-6.833s4.442-3.205 6.833-1.821l.099.057c2.39 1.384 3.205 4.443 1.821 6.833-.927 1.6-2.606 2.495-4.332 2.495z" fill="#00d890"/></g></g><g><g><path d="m48.024 406.154c-.851 0-1.712-.217-2.501-.674l-.099-.057c-2.39-1.384-3.205-4.443-1.821-6.833s4.443-3.205 6.833-1.821l.099.057c2.39 1.384 3.205 4.443 1.821 6.833-.928 1.6-2.606 2.495-4.332 2.495z" fill="#00d890"/></g><g><path d="m72.925 420.531c-.851 0-1.712-.217-2.501-.674l-.099-.057c-2.39-1.384-3.205-4.443-1.821-6.833s4.442-3.205 6.833-1.821l.099.057c2.39 1.384 3.205 4.443 1.821 6.833-.927 1.6-2.606 2.495-4.332 2.495z" fill="#00d890"/></g></g><g><g><path d="m72.836 406.154c-1.726 0-3.404-.895-4.332-2.495-1.384-2.389-.569-5.448 1.821-6.833l.099-.057c2.391-1.384 5.449-.568 6.833 1.821s.569 5.448-1.821 6.833l-.099.057c-.788.457-1.65.674-2.501.674z" fill="#00d890"/></g><g><path d="m47.935 420.531c-1.726 0-3.404-.895-4.332-2.495-1.384-2.389-.569-5.448 1.821-6.833l.099-.057c2.39-1.384 5.449-.568 6.833 1.821s.569 5.448-1.821 6.833l-.099.057c-.789.456-1.651.674-2.501.674z" fill="#00d890"/></g></g><g><g><path d="m72.836 406.154c-1.726 0-3.404-.895-4.332-2.495-1.384-2.389-.569-5.448 1.821-6.833l.099-.057c2.391-1.384 5.449-.568 6.833 1.821s.569 5.448-1.821 6.833l-.099.057c-.788.457-1.65.674-2.501.674z" fill="#00d890"/></g><g><path d="m47.935 420.531c-1.726 0-3.404-.895-4.332-2.495-1.384-2.389-.569-5.448 1.821-6.833l.099-.057c2.39-1.384 5.449-.568 6.833 1.821s.569 5.448-1.821 6.833l-.099.057c-.789.456-1.651.674-2.501.674z" fill="#00d890"/></g></g><g><g><path d="m60.43 398.993c-2.761 0-5-2.239-5-5v-.114c0-2.761 2.239-5 5-5s5 2.239 5 5v.114c0 2.761-2.239 5-5 5z" fill="#00d890"/></g><g><path d="m60.43 427.747c-2.761 0-5-2.239-5-5v-.114c0-2.761 2.239-5 5-5s5 2.239 5 5v.114c0 2.761-2.239 5-5 5z" fill="#00d890"/></g></g></g></g></g></g></svg>